<svg width="1918" height="620" viewBox="0 0 1918 620" fill="none" xmlns="http://www.w3.org/2000/svg">
<path d="M2 207.5C9.66667 171.333 63.3 102.1 216.5 114.5C369.7 126.9 437.333 99 452 83.5C497.833 64.1667 606.1 48.7 672.5 141.5C755.5 257.5 761 292.5 840.5 286.5C920 280.5 1058.5 199.5 1078 114.5C1097.5 29.5001 1103 -35.9999 1219 29.5001C1335 95.0001 1360 201 1323.5 251.5C1287 302 1188 374 1219 435.5C1250 497 1300 673 1433.5 599.5C1567 526 1553 287 1646 333C1739 379 1663.5 511 1735 549.5C1792.2 580.3 1881.17 595.667 1918.5 599.5" stroke="black" stroke-width="4"/>
</svg>
